# xmcd CD database file
#
# Track frame offsets:
#	150
#	10230
#	59836
#	107951
#	142604
#	184014
#	197092
#
# Disc length: 2910 seconds
#
# Revision: 0
# Processed by: cddbd v1.5.1PL2 Copyright (c) Steve Scherf et al.
# Submitted via: CDex 1.51
#
DISCID=5e0b5c07
DTITLE=Ed Van Fleet - Migration
DYEAR=1900
DGENRE=New Age
TTITLE0=Aurora
TTITLE1=Canyons
TTITLE2=Deo
TTITLE3=Gold Coast
TTITLE4=Indigo
TTITLE5=Remembering the future
TTITLE6=Summer's end
EXTD=
EXTT0=
EXTT1=
EXTT2=
EXTT3=
EXTT4=
EXTT5=
EXTT6=
PLAYORDER=
